<?xml version="1.0" encoding="UTF-8"?>
<svg viewBox="0 0 47.472 47.472" xmlns="http://www.w3.org/2000/svg">
 <path d="m21.003 23.867c0.29976-1.002-1.2028-0.89844-1.6655-0.49821-1.2537 1.0846-0.49846 3.0324 0.66904 3.8291 2.0884 1.4252 4.8674 0.22493 5.9928-1.8363 1.6516-3.0249-0.0434-6.7321-3.0035-8.1565-3.9454-1.8986-8.6079 0.30871-10.32 4.1708-2.1547 4.86 0.5723 10.489 5.338 12.484 5.7719 2.4158 12.374-0.83485 14.648-6.5053 2.6796-6.6824-1.0968-14.26-7.6725-16.811-7.592-2.9454-16.148 1.3582-18.975 8.8398-3.2123 8.501 1.6194 18.036 10.007 21.139 9.4096 3.4802 19.926-1.8804 23.302-11.174 3.7486-10.318-2.1411-21.816-12.342-25.466" fill="none" stroke="#e85100" stroke-linecap="round" stroke-width="4"/>
</svg>
